<svg xmlns="http://www.w3.org/2000/svg" width="172.823" height="114.778" viewBox="0 0 172.823 114.778">
  <g id="Group_3525" data-name="Group 3525" transform="translate(-50.093 -55.025)">
    <g id="Group_1342" data-name="Group 1342" transform="translate(50.093 55.025)">
      <g id="Group_1339" data-name="Group 1339" transform="translate(0 39.612)">
        <g id="Group_1338" data-name="Group 1338">
          <path id="Path_762" data-name="Path 762" d="M53.466,100.951c12.593,0,25.186.069,37.779.069H98.51c2.837,0,3.875-1.038,5.743-3.183a47.882,47.882,0,0,1,20.412-14.184,3.539,3.539,0,0,0,1.522-5.812,46.924,46.924,0,0,0-36.049-17.09A38.646,38.646,0,0,0,61.976,72.237C55.541,78.879,52.082,87.6,50.214,96.523c-.9,4.359,5.743,6.227,6.642,1.868,2.629-12.385,8.857-24.148,21.45-28.576A34.22,34.22,0,0,1,89.1,67.808c1.107,0,2.145,0,3.252.069.277,0,.484.069.692.069.484,0-.969-.138-.83-.138.969.069,1.868.138,2.837.277,10.656.969,19.581,6.642,26.224,14.738.484-1.937,1.038-3.875,1.522-5.812A54.688,54.688,0,0,0,97.61,95.139c.83-.346,1.661-.692,2.422-1.038-15.5-.069-31.067-.069-46.566-.069C48.968,94.032,48.968,100.951,53.466,100.951Z" transform="translate(-50.092 -60.75)"/>
        </g>
      </g>
      <g id="Group_1341" data-name="Group 1341" transform="translate(22.784)">
        <g id="Group_1340" data-name="Group 1340">
          <path id="Path_763" data-name="Path 763" d="M85.453,86.4a18.413,18.413,0,0,0,2.768-22.487,19.068,19.068,0,0,0-20.965-8.234,19.414,19.414,0,0,0-13.838,17.16A16.935,16.935,0,0,0,65.18,89.795c6.85,2.283,14.807,1.522,20.273-3.39a3.474,3.474,0,0,0-4.913-4.913,11.25,11.25,0,0,1-3.252,1.937,8.978,8.978,0,0,1-3.321.623,22.374,22.374,0,0,1-3.044-.069,4.671,4.671,0,0,1-.969-.138c-.415-.069.969.138.208,0-.277-.069-.484-.069-.761-.138a9.981,9.981,0,0,1-8.441-6.3c-.208-.623-.346-1.245-.554-1.937-.069-.138-.138-.9-.069-.277a3.946,3.946,0,0,1-.069-.9,12.216,12.216,0,0,1,6.573-11.071,11.844,11.844,0,0,1,14.046,2.491,11.33,11.33,0,0,1-.415,15.707C77.358,84.605,82.2,89.518,85.453,86.4Z" transform="translate(-53.385 -55.025)"/>
        </g>
      </g>
    </g>
    <g id="Group_1347" data-name="Group 1347" transform="translate(149.725 57.93)">
      <g id="Group_1344" data-name="Group 1344" transform="translate(0 39.186)">
        <g id="Group_1343" data-name="Group 1343">
          <path id="Path_764" data-name="Path 764" d="M84.614,100.561c16.537,0,33,.069,49.542.138,2.007,0,4.221-2.283,3.321-4.359-6.781-16.468-20.342-34.6-39.924-35.219-9.272-.277-18.474,3.944-25.6,9.618C67.524,74.268,61.3,79.8,66.416,85.269c1.868,2.007,4.29,3.114,6.5,4.705,3.6,2.56,6.5,6.227,9.272,9.618,2.837,3.46,7.68-1.453,4.913-4.913a60.989,60.989,0,0,0-9.272-9.618,23.572,23.572,0,0,0-3.044-2.076c-.692-.415-1.384-.9-2.076-1.315-1.384-.761.208.415-.484-.346a11.018,11.018,0,0,1-.9-.9c-.623-.83-.692-.623-.138.623.484.277-.692.83.346-.138.9-.83,1.591-1.937,2.491-2.768a39.874,39.874,0,0,1,11.347-7.473c20.965-9.2,38.125,9.549,45.459,27.538l3.321-4.359c-16.537-.069-33-.069-49.542-.138C80.117,93.641,80.117,100.561,84.614,100.561Z" transform="translate(-64.492 -61.108)"/>
        </g>
      </g>
      <g id="Group_1346" data-name="Group 1346" transform="translate(12.34)">
        <g id="Group_1345" data-name="Group 1345">
          <path id="Path_765" data-name="Path 765" d="M97.929,86.41a18.1,18.1,0,0,0,2.7-22.211,18.8,18.8,0,0,0-20.688-8.1A19.116,19.116,0,0,0,66.308,73.056,16.706,16.706,0,0,0,77.932,89.8c6.712,2.145,14.6,1.384,20-3.39A3.474,3.474,0,0,0,93.016,81.5,10.631,10.631,0,0,1,89.9,83.366a10.276,10.276,0,0,1-3.252.623,21.371,21.371,0,0,1-2.975-.069,4.671,4.671,0,0,1-.969-.138c.9.069,0,0-.484-.069a10.525,10.525,0,0,1-6.089-2.768,9.576,9.576,0,0,1-2.214-3.39,18.546,18.546,0,0,1-.484-1.868c-.069-.138-.138-.9-.069-.277a3.655,3.655,0,0,1-.069-.9,12.054,12.054,0,0,1,6.435-10.863A11.557,11.557,0,0,1,93.5,66.137,11.035,11.035,0,0,1,93.085,81.5C89.833,84.611,94.677,89.455,97.929,86.41Z" transform="translate(-66.275 -55.445)"/>
        </g>
      </g>
    </g>
    <g id="Group_1357" data-name="Group 1357" transform="translate(85.833 66.33)">
      <g id="Group_1352" data-name="Group 1352">
        <g id="Group_1349" data-name="Group 1349" transform="translate(0 44.36)">
          <g id="Group_1348" data-name="Group 1348">
            <path id="Path_766" data-name="Path 766" d="M58.663,107.631c24.84.069,49.611.138,74.451.138h13.908a3.482,3.482,0,0,0,3.321-4.359c-4.151-22.557-23.94-40.2-47.12-40.339C84.679,62.933,69.733,74.9,60.877,90.4c-2.283,3.944-4.567,8.3-5.535,12.8-.9,4.359,5.743,6.227,6.642,1.868,1.8-8.511,7.819-17.16,13.977-23.318C89.246,68.4,109.311,66.461,125.087,76.7a43.142,43.142,0,0,1,18.544,28.576l3.321-4.359q-39.128-.1-78.256-.138h-10.1C54.234,100.712,54.234,107.631,58.663,107.631Z" transform="translate(-55.258 -63.07)"/>
          </g>
        </g>
        <g id="Group_1351" data-name="Group 1351" transform="translate(26.968)">
          <g id="Group_1350" data-name="Group 1350">
            <path id="Path_767" data-name="Path 767" d="M93.3,90.018A19.48,19.48,0,0,0,96.2,66.078a20.284,20.284,0,0,0-22.28-8.718A20.667,20.667,0,0,0,59.187,75.626a17.858,17.858,0,0,0,12.385,17.99c7.265,2.283,15.845,1.591,21.726-3.6,2.491-2.214-1.176-5.881-3.667-3.667a13.95,13.95,0,0,1-8.372,3.321A28.88,28.88,0,0,1,77.8,89.6c-.346-.069-.761-.069-1.107-.138-.415-.069.692.138-.138,0-.277-.069-.554-.069-.83-.138-6.158-1.107-11.071-5.466-11.417-11.97-.277-5.674,3.183-11.071,8.1-13.769A14.763,14.763,0,0,1,90.046,66.7a14.321,14.321,0,0,1-.484,19.789C87.21,88.634,90.877,92.3,93.3,90.018Z" transform="translate(-59.155 -56.659)"/>
          </g>
        </g>
      </g>
      <g id="Group_1354" data-name="Group 1354" transform="translate(36.792 52.662)">
        <path id="Path_768" data-name="Path 768" d="M71.476,64.787A199.933,199.933,0,0,1,79.018,90.6v.484c-.692,2.145-1.73,5.466-3.183,9.41-3.806,10.794-4.774,11.555-5.535,11.555-1.73.069-3.321-4.013-6.3-12.109-1.453-3.944-2.491-7.265-3.183-9.41v-.208A196.789,196.789,0,0,1,68.362,64.51" transform="translate(-59.127 -62.848)" fill="#fff"/>
        <g id="Group_1353" data-name="Group 1353">
          <path id="Path_769" data-name="Path 769" d="M71.264,66.624A195.952,195.952,0,0,1,78.39,90.7c.692,2.906-1.245,6.366-2.214,9.133-1.038,3.044-2.145,6.089-3.39,9.064-.277.554-1.661,2.975-1.591,3.044-.069-.138.554-.138.554-.208,0-.138-.554-.83-.692-1.176a52.751,52.751,0,0,1-3.46-8.441c-1.176-3.114-2.837-6.642-3.39-9.964-.277-1.591.554-3.6.969-5.259.554-2.353,1.176-4.636,1.868-6.919,1.315-4.636,2.837-9.133,4.428-13.631.761-2.076-2.56-2.975-3.321-.9-1.73,4.774-3.321,9.618-4.705,14.53-.623,2.283-1.245,4.636-1.8,6.919-.415,1.591-1.245,3.6-1.038,5.259a27.678,27.678,0,0,0,1.453,4.636c.761,2.283,1.591,4.5,2.422,6.712,1.176,3.114,2.145,6.5,3.944,9.341,1.661,2.56,4.29,3.183,6.089.484a38,38,0,0,0,2.768-6.158c1.522-4.013,2.906-8.026,4.221-12.109a7.769,7.769,0,0,0,.415-4.843q-.934-4.152-2.076-8.3c-1.522-5.466-3.252-10.932-5.189-16.26-.83-2.007-4.152-1.107-3.39.969Z" transform="translate(-60.575 -64.27)"/>
        </g>
      </g>
      <g id="Group_1356" data-name="Group 1356" transform="translate(39.438 42.07)">
        <path id="Path_770" data-name="Path 770" d="M67.027,74.13c1.453.069,2.837-1.245,5.674-3.944.415-.415,1.107-1.038.969-1.8A2.438,2.438,0,0,0,72.7,67C71.109,65.689,69.587,64.3,68,62.99H66.888C65.3,64.3,63.775,65.688,62.183,67c-.277.277-.9.692-.969,1.384a2.466,2.466,0,0,0,.969,1.8C64.882,72.746,66.2,74.061,67.027,74.13Z" transform="translate(-59.469 -61.253)" fill="#fff"/>
        <g id="Group_1355" data-name="Group 1355">
          <path id="Path_771" data-name="Path 771" d="M68.515,77.346c2.353.138,4.29-2.007,5.881-3.46,1.176-1.107,2.56-2.214,2.491-4.013-.069-1.868-2.076-3.114-3.39-4.221-.692-.623-1.384-1.176-2.076-1.8a6.985,6.985,0,0,0-1.107-.9,1.991,1.991,0,0,0-1.107-.208,3.733,3.733,0,0,0-1.73.208,14.381,14.381,0,0,0-2.214,1.868c-.692.623-1.384,1.176-2.076,1.8a13.117,13.117,0,0,0-1.453,1.315c-1.315,1.522-.83,3.46.484,4.774,1.038,1.107,2.214,2.145,3.321,3.183a6.319,6.319,0,0,0,2.975,1.453,1.73,1.73,0,0,0,0-3.46c.554.069.415.069.208,0-.069,0-.277-.069,0,0,.277.138-.138-.069-.208-.138-.138-.069-.484-.346-.138-.138a3.468,3.468,0,0,1-.554-.484c-1.038-.9-2.007-1.868-2.975-2.837l-.277-.277h0c0-.069-.069-.069-.069-.138-.208-.277,0-.069,0,.069,0,.069-.138.346-.069.138.069-.138-.138.138.069-.069l.277-.277c.277-.208.484-.415.761-.623l4.152-3.529c-.415.138-.83.346-1.245.484h1.107c-.415-.138-.83-.346-1.245-.484,1.315,1.107,2.629,2.283,3.944,3.39.346.277.623.554.969.83l.346.346c-.069.069-.069-.208-.069-.208,0-.138.138-.277,0-.138-.069.069-.208.277-.069.138a6.526,6.526,0,0,1-.692.692c-.554.484-1.107,1.038-1.661,1.522a6.245,6.245,0,0,1-.692.623c-.138.138-.277.208-.346.277-.277.208.069-.069-.069.069a5.974,5.974,0,0,1-1.107.692c.346-.208,0-.069-.138,0-.277.138.346,0,.069,0h-.277a1.758,1.758,0,0,0-1.73,1.73A1.82,1.82,0,0,0,68.515,77.346Z" transform="translate(-60.958 -62.739)"/>
        </g>
      </g>
    </g>
    <path id="Path_981" data-name="Path 981" d="M60.82,63.73" transform="translate(63.498 51.528)" fill="none" stroke="#000" stroke-miterlimit="10" stroke-width="0.75"/>
  </g>
</svg>
