<svg xmlns="http://www.w3.org/2000/svg" width="98.861" height="111.18" viewBox="0 0 98.861 111.18">
  <g id="Group_601" data-name="Group 601" transform="translate(-481.237 -409.824)">
    <g id="Group_600" data-name="Group 600" transform="translate(481.237 409.826)">
      <g id="Group_65" data-name="Group 65" transform="translate(0.001 24.717)">
        <g id="Group_64" data-name="Group 64">
          <path id="Path_15" data-name="Path 15" d="M92.28,111.322a94.073,94.073,0,0,0,33.064-4.963A25.693,25.693,0,0,0,143.25,89.525a45.2,45.2,0,0,0-4.426-29.643,99.374,99.374,0,0,0-14.285-23.741,40.649,40.649,0,0,0-10.06-10.529,10.885,10.885,0,0,0-5.1-.469H83.226a25.15,25.15,0,0,0-7.444.134,15.64,15.64,0,0,0-5.365,4.695,98.542,98.542,0,0,0-17.1,24.144A62.686,62.686,0,0,0,45.2,82.282a24.345,24.345,0,0,0,15.626,22.8,88.648,88.648,0,0,0,36.35,6.237,3.354,3.354,0,1,0,0-6.707,89.868,89.868,0,0,1-30.649-4.493,22.661,22.661,0,0,1-11.535-7.31A20.629,20.629,0,0,1,51.974,79.2a67.877,67.877,0,0,1,9.658-26.558A95.6,95.6,0,0,1,79,30.843c-.8.335-1.61.671-2.347,1.006h36.081c-.8-.335-1.61-.671-2.347-1.006a94.6,94.6,0,0,1,17.035,21.193A68.756,68.756,0,0,1,137.483,79.2,18.892,18.892,0,0,1,123.6,99.921a88.527,88.527,0,0,1-31.253,4.762,3.353,3.353,0,0,0-.067,6.64Z" transform="translate(-45.2 -24.928)"/>
        </g>
      </g>
      <g id="Group_67" data-name="Group 67" transform="translate(61.09 -0.002)">
        <g id="Group_66" data-name="Group 66">
          <path id="Path_16" data-name="Path 16" d="M60.688,33.366c-.134.2-.134.134.134-.2a3.834,3.834,0,0,1,.469-.537c.268-.268.469-.537.738-.8s.738-.671,1.073-1.006,0,0,.469-.335a24.255,24.255,0,0,1,2.213-1.341,9.323,9.323,0,0,1,1.878-.8c.335-.134.738-.2,1.073-.335a3.46,3.46,0,0,1,.738-.134c-.268.067-.134.067.268,0-.2-.067-.134-.067,0,0s.2.067-.067-.067c.335.2.335.2.067,0a.61.61,0,0,1-.2-.469c-.134-.335.335-.671-.067-.134.2-.335-.134.134-.134.134a25,25,0,0,1-2.012,1.744,27.8,27.8,0,0,0-9.792,18.577A3.353,3.353,0,0,0,60.889,51a3.407,3.407,0,0,0,3.353-3.353c.067-.6,0,0,.067-.537.067-.335.134-.738.2-1.073.2-.8.4-1.61.671-2.414.134-.335.2-.671.335-1.006.067-.134.335-.872.2-.537A20.2,20.2,0,0,1,66.788,40c.335-.6.738-1.207,1.14-1.811.134-.2.469-.671.469-.671s.469-.537.671-.8a22.13,22.13,0,0,1,3.42-3.219,9.691,9.691,0,0,0,3.42-4.292,5.882,5.882,0,0,0-1.274-5.969,9.677,9.677,0,0,0-11-.537,22.011,22.011,0,0,0-8.853,7.176,3.428,3.428,0,1,0,5.9,3.487Z" transform="translate(-54.309 -21.242)"/>
        </g>
      </g>
      <g id="Group_69" data-name="Group 69" transform="translate(14.681 1.352)">
        <g id="Group_68" data-name="Group 68">
          <path id="Path_17" data-name="Path 17" d="M67.583,45.761A33.311,33.311,0,0,0,56.718,29.2a8.571,8.571,0,0,0-1.945-1.542c-.4-.671-.671-.6-.8.134-.4.537-.4.671,0,.469.335.268,2.28-.067,2.817,0a18.39,18.39,0,0,1,1.878.335,14.754,14.754,0,0,1,7.78,5.03,3.353,3.353,0,0,0,4.762,0,7.592,7.592,0,0,1,3.018-2.616c.469-.134.872.2,1.543.738a7.511,7.511,0,0,0,8.517,1.543c1.207-.671,1.945-1.945,3.085-2.683.738-.469.738-.469,1.408-.4a14.58,14.58,0,0,1,6.841,3.219c3.555,2.481,6.908-3.286,3.353-5.768-5.432-3.89-11.871-6.1-17.236-.939a4.212,4.212,0,0,1-.8.738c-.335.2.2,0,.335,0a3.179,3.179,0,0,1-1.274-.8,9.993,9.993,0,0,0-4.426-2.28,10.214,10.214,0,0,0-9.188,4.493h4.762A20.871,20.871,0,0,0,60.072,22.02c-3.89-.872-10.127-1.341-12.139,3.085-2.347,5.164,3.487,7.981,6.438,11a27.2,27.2,0,0,1,6.707,11.468c1.274,4.091,7.78,2.347,6.505-1.811Z" transform="translate(-47.389 -21.444)"/>
        </g>
      </g>
      <g id="Group_201" data-name="Group 201" transform="translate(33.065 54.455)">
        <g id="Group_196" data-name="Group 196" transform="translate(3.556)">
          <g id="Group_195" data-name="Group 195">
            <path id="Path_98" data-name="Path 98" d="M69.705,30.421a13.179,13.179,0,0,0-10.8.2A13.923,13.923,0,0,0,52.134,38.2a23.473,23.473,0,0,0-.8,13.749,13.822,13.822,0,0,0,19.449,9.523c1.945-.872.268-3.756-1.677-2.884A11.052,11.052,0,0,1,58.17,57.046a13.614,13.614,0,0,1-4.024-11.133,14.533,14.533,0,0,1,4.091-10.865A9.966,9.966,0,0,1,68.9,33.573a1.75,1.75,0,0,0,2.079-1.14A2.012,2.012,0,0,0,69.7,30.421Z" transform="translate(-50.66 -29.362)"/>
          </g>
        </g>
        <g id="Group_198" data-name="Group 198" transform="translate(0 12.124)">
          <g id="Group_197" data-name="Group 197">
            <path id="Path_99" data-name="Path 99" d="M51.807,34.59c6.371,0,12.742-.067,19.047-.067a1.677,1.677,0,0,0,0-3.353c-6.371,0-12.743.067-19.047.067a1.677,1.677,0,1,0,0,3.353Z" transform="translate(-50.13 -31.17)"/>
          </g>
        </g>
        <g id="Group_200" data-name="Group 200" transform="translate(0 17.691)">
          <g id="Group_199" data-name="Group 199">
            <path id="Path_100" data-name="Path 100" d="M51.807,35.42c6.371,0,12.742-.067,19.047-.067a1.677,1.677,0,0,0,0-3.353c-6.371,0-12.743.067-19.047.067a1.677,1.677,0,1,0,0,3.353Z" transform="translate(-50.13 -32)"/>
          </g>
        </g>
      </g>
    </g>
  </g>
</svg>
