<svg id="Component_12_1" data-name="Component 12 – 1" xmlns="http://www.w3.org/2000/svg" width="31.359" height="36.84" viewBox="0 0 31.359 36.84">
  <g id="Group_3434" data-name="Group 3434" transform="translate(12.684)">
    <g id="Group_3415" data-name="Group 3415" transform="translate(0 0)">
      <path id="Path_1979" data-name="Path 1979" d="M202,101.71c-.036-.142-.071-.32-.107-.462-.036-.107,0,.178,0,.036v-.462c0-.036.036-.178,0-.036s0-.071.036-.107a.505.505,0,0,1,.071-.213c0-.036.036-.071.036-.107.036-.107,0,.036-.036.071l.107-.213c.036-.071.107-.107.107-.178,0,0-.107.142-.071.071.036-.036.036-.071.071-.071l.178-.178s-.142.107-.036.036c.036-.036.071-.036.107-.071.071-.036.107-.071.178-.107.142-.071-.036.036-.071.036.036,0,.071-.036.107-.036.071-.036.142-.036.213-.071.036,0,.107-.036.142-.036.142-.036-.249.036-.036,0h.391c-.32-.036-.142,0-.036,0l.32.107c.107.036-.036.036-.071-.036l.107.036.213.107c.142.071-.036-.036-.036-.036.036,0,.071.071.107.071l.142.142c.142.178-.071-.107,0,0a.744.744,0,0,0,.142.213c.036.036.036.142,0,.036-.036-.142,0,0,0,.036.036.071.036.178.071.249v.071c.036.178,0-.213,0,0v.462c-.036.036-.036.142-.036.178-.036.071-.036.178-.071.249,0,.036-.036.071-.036.107-.071.178.071-.142,0,.036a.91.91,0,0,0,.32,1.209.877.877,0,0,0,1.209-.32,3.649,3.649,0,0,0,.249-2.667,3.01,3.01,0,0,0-1.885-1.885,3.058,3.058,0,0,0-3.557,1.28,3.489,3.489,0,0,0-.285,2.916.883.883,0,0,0,1.1.6.842.842,0,0,0,.64-1.067Z" transform="translate(-200.066 -97.815)"/>
    </g>
  </g>
  <g id="Group_3435" data-name="Group 3435" transform="translate(11.311 33.448)">
    <g id="Group_3417" data-name="Group 3417" transform="translate(0)">
      <path id="Path_1980" data-name="Path 1980" d="M200.569,109.071a46.564,46.564,0,0,0,7.042.107c-.213-.5-.427-1-.64-1.529-.107.107-.249.213-.356.32-.142.142.071-.036,0,0s-.107.071-.178.107c-.142.071-.249.178-.391.249a2.875,2.875,0,0,1-.96.391,3.418,3.418,0,0,1-1.209.107,3.511,3.511,0,0,1-1.849-.64,2.16,2.16,0,0,1-.356-.249c.178.142-.107-.071-.142-.107l-.32-.32c-.782-.854-2.027.427-1.245,1.245a5.891,5.891,0,0,0,3.912,1.849,5.688,5.688,0,0,0,4.375-1.743.908.908,0,0,0-.64-1.529,46.566,46.566,0,0,1-7.042-.107.9.9,0,0,0-.889.889A.943.943,0,0,0,200.569,109.071Z" transform="translate(-199.68 -107.219)"/>
    </g>
  </g>
  <g id="Group_3436" data-name="Group 3436" transform="translate(0 3.322)">
    <g id="Group_3419" data-name="Group 3419" transform="translate(0)">
      <path id="Path_1981" data-name="Path 1981" d="M212.256,100.531c7.469-.107,8.892,8.571,8.607,14.369a11.762,11.762,0,0,0,.142,3.165,12.384,12.384,0,0,0,2.205,3.806c.5.747,1.031,1.494,1.565,2.205a6.793,6.793,0,0,0,.854,1.138,2.154,2.154,0,0,0,.249.356h.32c-.427.285-1.921,0-2.418.036-7.113.036-14.226,0-21.34,0h-4.09c-.5-.036.071.107.178,0,.391-.427.711-1.031,1.067-1.494,1.707-2.276,3.877-4.588,3.983-7.575.036-1.423-.142-2.881-.071-4.3a23.032,23.032,0,0,1,.889-5.157c1.067-3.877,3.592-6.651,7.86-6.544,1.138.036,1.138-1.743,0-1.778a8.932,8.932,0,0,0-8.572,5.121,21.754,21.754,0,0,0-2.027,9.709,15.474,15.474,0,0,1-.036,4.054,6.11,6.11,0,0,1-1.1,2.063c-.747,1.031-1.423,2.1-2.17,3.094-.676.925-2.561,2.739-1.565,4.054.569.782,1.778.6,2.632.6,8.038.071,16.04.036,24.078,0,1.494,0,5.193.462,4.2-2.17a9.684,9.684,0,0,0-1.494-2.276c-.747-1-1.458-2.063-2.17-3.094a6.048,6.048,0,0,1-1.387-4.054c.107-3.734-.036-7.362-1.458-10.883a9.2,9.2,0,0,0-8.892-6.188A.872.872,0,0,0,212.256,100.531Z" transform="translate(-196.5 -98.749)"/>
    </g>
  </g>
</svg>
