<svg xmlns="http://www.w3.org/2000/svg" width="47.535" height="35.989" viewBox="0 0 47.535 35.989">
  <g id="Group_3443" data-name="Group 3443" transform="translate(-8870.816 1419.377)">
    <g id="Group_3425" data-name="Group 3425" transform="translate(8870.816 -1416.183)">
      <g id="Group_3397" data-name="Group 3397" transform="translate(0 0)">
        <path id="Path_1969" data-name="Path 1969" d="M175.743,99.314a24.576,24.576,0,0,0,.209,22.849c.522.974,2.052.1,1.5-.869a22.591,22.591,0,0,1-.209-21.076c.522-1.009-.974-1.913-1.5-.9Z" transform="translate(-173.03 -98.873)"/>
      </g>
    </g>
    <g id="Group_3426" data-name="Group 3426" transform="translate(8875.634 -1413.559)">
      <g id="Group_3399" data-name="Group 3399" transform="translate(0 0)">
        <path id="Path_1970" data-name="Path 1970" d="M176.693,100.053a17.926,17.926,0,0,0,.139,17.737.865.865,0,0,0,1.5-.869,16.047,16.047,0,0,1-.139-15.963.874.874,0,0,0-1.5-.9Z" transform="translate(-174.415 -99.628)"/>
      </g>
    </g>
    <g id="Group_3427" data-name="Group 3427" transform="translate(8891.637 -1419.377)">
      <g id="Group_3401" data-name="Group 3401" transform="translate(0 0)">
        <path id="Path_1971" data-name="Path 1971" d="M180.908,101.764c-.035-.139-.07-.313-.1-.452-.035-.1,0,.174,0,.035v-.452c0-.035.035-.174,0-.035s0-.07.035-.1a.494.494,0,0,1,.07-.209c0-.035.035-.07.035-.1.035-.1,0,.035-.035.07l.1-.209c.035-.07.1-.1.1-.174,0,0-.1.139-.07.07.035-.035.035-.07.07-.07l.174-.174s-.139.1-.035.035c.035-.035.07-.035.1-.07.07-.035.1-.07.174-.1.139-.07-.035.035-.07.035.035,0,.07-.035.1-.035.07-.035.139-.035.209-.07.035,0,.1-.035.139-.035.139-.035-.243.035-.035,0h.383c-.313-.035-.139,0-.035,0l.313.1c.1.035-.035.035-.07-.035l.1.035.209.1c.139.07-.035-.035-.035-.035.035,0,.07.07.1.07l.139.139c.139.174-.07-.1,0,0a.729.729,0,0,0,.139.209c.035.035.035.139,0,.035-.035-.139,0,0,0,.035.035.07.035.174.07.243v.07c.035.174,0-.209,0,0v.452c-.035.035-.035.139-.035.174-.035.07-.035.174-.07.243,0,.035-.035.07-.035.1-.07.174.07-.139,0,.035a.89.89,0,0,0,.313,1.182.858.858,0,0,0,1.183-.313,3.568,3.568,0,0,0,.243-2.608,2.943,2.943,0,0,0-1.843-1.843,2.99,2.99,0,0,0-3.478,1.252,3.412,3.412,0,0,0-.278,2.852.882.882,0,0,0,1.7-.452Z" transform="translate(-179.016 -97.955)"/>
      </g>
    </g>
    <g id="Group_3428" data-name="Group 3428" transform="translate(8890.26 -1386.704)">
      <g id="Group_3403" data-name="Group 3403" transform="translate(0 0)">
        <path id="Path_1972" data-name="Path 1972" d="M179.489,109.16a45.528,45.528,0,0,0,6.886.1c-.209-.487-.417-.974-.626-1.5-.1.1-.243.209-.348.313-.139.139.07-.035,0,0s-.1.07-.174.1c-.139.07-.243.174-.383.243a2.812,2.812,0,0,1-.939.383,3.342,3.342,0,0,1-1.182.1,3.433,3.433,0,0,1-1.809-.626,2.112,2.112,0,0,1-.348-.243c.174.139-.1-.07-.139-.1l-.313-.313c-.765-.835-1.982.417-1.217,1.217a5.761,5.761,0,0,0,3.826,1.808,5.562,5.562,0,0,0,4.278-1.7.888.888,0,0,0-.626-1.5,45.534,45.534,0,0,1-6.886-.1.883.883,0,0,0-.869.869A.9.9,0,0,0,179.489,109.16Z" transform="translate(-178.62 -107.349)"/>
      </g>
    </g>
    <g id="Group_3429" data-name="Group 3429" transform="translate(8879.233 -1416.129)">
      <path id="Path_1973" data-name="Path 1973" d="M190.26,99.144a8.155,8.155,0,0,1,4.382,1.043c3.165,1.878,4.034,5.738,4.521,8.034,1.217,5.634-.73,7.686,1.356,10.5.939,1.287,1.808,2.608,2.747,3.9.73.974,1.635,2.087,1.287,2.574-.139.209-.452.209-.591.209-1.182.035-6.747.035-14.4,0-6.956.035-12.033.035-13.216,0-.139,0-.452,0-.591-.209-.313-.487.557-1.6,1.287-2.574.974-1.252,1.809-2.608,2.747-3.9,2.087-2.817.139-4.869,1.356-10.5.487-2.3,1.356-6.156,4.521-8.034A8.627,8.627,0,0,1,190.26,99.144Z" transform="translate(-174.852 -98.27)"/>
      <g id="Group_3405" data-name="Group 3405" transform="translate(0 0)">
        <path id="Path_1974" data-name="Path 1974" d="M190.857,100.632c7.3-.1,8.695,8.382,8.417,14.05a11.5,11.5,0,0,0,.139,3.1,12.11,12.11,0,0,0,2.156,3.721c.487.73,1.009,1.461,1.53,2.156a6.642,6.642,0,0,0,.835,1.113,2.109,2.109,0,0,0,.243.348h.313c-.417.278-1.878,0-2.365.035-6.956.035-13.911,0-20.867,0h-4c-.487-.035.07.1.174,0,.383-.417.7-1.009,1.043-1.461,1.669-2.226,3.791-4.486,3.9-7.408.035-1.391-.139-2.817-.07-4.208a22.523,22.523,0,0,1,.869-5.043c1.043-3.791,3.478-6.5,7.686-6.4,1.113.035,1.113-1.7,0-1.739a8.734,8.734,0,0,0-8.382,5.008,21.272,21.272,0,0,0-1.982,9.495,15.133,15.133,0,0,1-.035,3.965,5.974,5.974,0,0,1-1.078,2.017c-.73,1.009-1.391,2.052-2.122,3.026-.661.9-2.5,2.678-1.53,3.965.557.765,1.739.591,2.574.591,7.86.07,15.685.035,23.545,0,1.461,0,5.078.452,4.1-2.121a9.469,9.469,0,0,0-1.461-2.226c-.73-.974-1.426-2.017-2.121-3.026a5.914,5.914,0,0,1-1.356-3.965c.1-3.652-.035-7.2-1.426-10.642a8.992,8.992,0,0,0-8.695-6.051A.852.852,0,0,0,190.857,100.632Z" transform="translate(-175.45 -98.889)"/>
      </g>
    </g>
    <g id="Group_3430" data-name="Group 3430" transform="translate(8913.799 -1416.133)">
      <g id="Group_3407" data-name="Group 3407" transform="translate(0 0)">
        <path id="Path_1975" data-name="Path 1975" d="M185.706,100.217a22.692,22.692,0,0,1-.209,21.076c-.522.974.974,1.878,1.5.869a24.375,24.375,0,0,0,.209-22.849c-.522-.974-2.017-.1-1.5.9Z" transform="translate(-185.389 -98.888)"/>
      </g>
    </g>
    <g id="Group_3431" data-name="Group 3431" transform="translate(8909.474 -1413.537)">
      <g id="Group_3409" data-name="Group 3409" transform="translate(0 0)">
        <path id="Path_1976" data-name="Path 1976" d="M184.406,100.941a16.133,16.133,0,0,1-.139,15.963.865.865,0,0,0,1.5.869,17.839,17.839,0,0,0,.139-17.737.875.875,0,0,0-1.5.9Z" transform="translate(-184.145 -99.634)"/>
      </g>
    </g>
  </g>
</svg>
