<svg xmlns="http://www.w3.org/2000/svg" width="113.808" height="96.132" viewBox="0 0 113.808 96.132">
  <g id="Group_3520" data-name="Group 3520" transform="translate(-148.006 -56.49)">
    <g id="Group_921" data-name="Group 921" transform="translate(148.006 56.49)">
      <path id="Path_512" data-name="Path 512" d="M200.167,115.5c16.931-8.982,33.861-18.043,50.712-27.025L199.85,57.24h-.079L148.74,88.478c16.851,8.9,33.782,17.884,50.633,26.787" transform="translate(-142.906 -51.279)"/>
      <g id="Group_920" data-name="Group 920">
        <path id="Path_513" data-name="Path 513" d="M208.209,125.881c16.931-8.982,33.861-18.043,50.712-27.025,4.054-2.146,3.657-8.028,0-10.333-9.061-5.564-18.123-11.049-27.1-16.613-4.69-2.862-9.3-5.723-13.99-8.585-3.5-2.146-8.664-6.836-12.877-6.836-4.054,0-8.744,4.292-12.082,6.359-4.69,2.862-9.3,5.723-13.99,8.585-9.3,5.723-18.679,11.446-27.979,17.09-3.656,2.226-4.054,8.108,0,10.333,16.851,8.9,33.782,17.884,50.633,26.787,6.756,3.577,12.8-6.677,6.041-10.333-16.851-8.9-33.782-17.884-50.633-26.787V98.856c8.187-5.008,16.454-10.095,24.641-15.1,4.372-2.7,8.744-5.405,13.195-8.028,2.226-1.351,4.372-2.7,6.6-4.054,1.033-.636,6.756-3.021,3.577-3.021s2.544,2.385,3.577,3.021c2.226,1.351,4.372,2.7,6.6,4.054,4.133,2.544,8.187,5.008,12.32,7.551,8.505,5.167,17.01,10.413,25.515,15.579V88.523c-16.931,8.982-33.861,18.043-50.712,27.025-6.836,3.577-.8,13.91,5.961,10.333Z" transform="translate(-148.006 -56.49)"/>
      </g>
    </g>
    <g id="Group_923" data-name="Group 923" transform="translate(169.735 116.815)">
      <path id="Path_514" data-name="Path 514" d="M151.23,80.706c.079-4.928.159-9.856.238-14.7q15.738,8.942,31.715,17.408L215.137,64.57c.079,5.087.079,10.254.159,15.341A59.963,59.963,0,0,1,189.7,91.675a44.8,44.8,0,0,1-12,.874C165.22,91.675,156.317,85,152.263,81.421" transform="translate(-147.333 -60.67)"/>
      <g id="Group_922" data-name="Group 922">
        <path id="Path_515" data-name="Path 515" d="M158.611,84.115c.079-4.928.159-9.856.238-14.7-1.987,1.113-3.974,2.305-5.961,3.418,5.8,3.259,11.605,6.518,17.487,9.7,2.544,1.431,5.087,2.782,7.71,4.133,2.385,1.272,5.8,4.054,8.585,4.054,2.862,0,6.279-3.02,8.585-4.451,2.544-1.51,5.167-3.02,7.71-4.531,5.882-3.5,11.764-6.915,17.646-10.413-1.987-1.113-3.974-2.305-5.961-3.418.079,5.087.079,10.254.159,15.341.636-1.113,1.351-2.305,1.987-3.418-8.823,6.756-19.395,11.525-30.6,12.161-10.254.556-19.951-3.338-27.661-10.015-3.815-3.338-9.538,2.305-5.644,5.644,11.128,9.618,24.959,14.069,39.584,11.6a62.835,62.835,0,0,0,22.415-8.426c2.544-1.59,7.154-3.815,7.79-6.915.4-2.305,0-5.167,0-7.551,0-2.782-.079-5.564-.079-8.267a3.962,3.962,0,0,0-5.961-3.418L184.683,83.479h3.974c-10.651-5.643-21.223-11.525-31.715-17.407a3.988,3.988,0,0,0-5.961,3.418c-.079,4.928-.159,9.856-.238,14.7-.159,5.008,7.79,5.008,7.869-.079Z" transform="translate(-150.74 -64.079)"/>
      </g>
    </g>
    <g id="Group_925" data-name="Group 925" transform="translate(248.985 99.572)">
      <g id="Group_924" data-name="Group 924">
        <path id="Path_516" data-name="Path 516" d="M160.869,63.818c-.079,5.961-.159,12-.159,17.964,0,2.544,3.974,2.544,3.974,0,.079-5.961.159-12,.159-17.964,0-2.544-3.974-2.544-3.974,0Z" transform="translate(-160.71 -61.91)"/>
      </g>
    </g>
    <g id="Group_927" data-name="Group 927" transform="translate(245.523 117.376)">
      <path id="Path_517" data-name="Path 517" d="M160.52,69.5c.318-.477.715-.874,1.033-1.351.954-1.272,1.749-2.464,2.544-3.736,1.033,1.749,2.067,3.418,3.1,5.167C163.143,69.5,160.52,69.5,160.52,69.5Z" transform="translate(-158.568 -62.343)"/>
      <g id="Group_926" data-name="Group 926">
        <path id="Path_518" data-name="Path 518" d="M163.975,72.258c1.272-1.669,2.464-3.338,3.577-5.087h-3.418c1.033,1.749,2.067,3.418,3.1,5.167.557-1.033,1.113-1.987,1.749-3.02-2.226,0-4.451-.079-6.677-.079a1.987,1.987,0,0,0,0,3.974c2.226,0,4.451.079,6.677.079a2.048,2.048,0,0,0,1.749-3.02c-1.033-1.749-2.067-3.418-3.1-5.167a2,2,0,0,0-1.749-.954,2.184,2.184,0,0,0-1.749.954c-1.113,1.749-2.305,3.418-3.577,5.087a2.058,2.058,0,0,0-.238,1.51,2.248,2.248,0,0,0,.874,1.192,2.057,2.057,0,0,0,1.51.238A1.876,1.876,0,0,0,163.975,72.258Z" transform="translate(-160.274 -64.15)"/>
      </g>
    </g>
  </g>
</svg>
