<svg xmlns="http://www.w3.org/2000/svg" width="79.526" height="103.788" viewBox="0 0 79.526 103.788">
  <g id="Group_1170" data-name="Group 1170" transform="translate(-226.828 -52.851)">
    <g id="Group_951" data-name="Group 951" transform="translate(226.829 118.466)">
      <path id="Path_538" data-name="Path 538" d="M261.012,97.3c-11.112-.124-22.224-.248-33.336-.435V96.5c-.186-7.263-.31-14.464-.5-21.727v-.435A29.437,29.437,0,0,1,245.431,63.78,136.664,136.664,0,0,0,258.84,93.764" transform="translate(-224.999 -61.55)"/>
      <g id="Group_950" data-name="Group 950">
        <path id="Path_539" data-name="Path 539" d="M262.842,96.876c-11.112-.124-22.224-.248-33.336-.435l2.359,2.359c0-7.511-.745-15.023-.435-22.534-.248.559-.435,1.117-.683,1.676a28.3,28.3,0,0,1,17.2-9.995c-.931-.559-1.924-1.055-2.856-1.614a144.865,144.865,0,0,0,13.657,30.542c1.552,2.545,5.587.248,4.035-2.359A134.508,134.508,0,0,1,249.62,65.092a2.35,2.35,0,0,0-2.856-1.614,31.445,31.445,0,0,0-18.748,10.553c-1.366,1.614-1.18,2.98-1.18,4.966.062,2.3.124,4.594.124,6.891.124,4.283.248,8.629.248,12.912a2.441,2.441,0,0,0,2.359,2.359c11.112.124,22.224.248,33.336.435,2.918-.062,2.918-4.718-.062-4.718Z" transform="translate(-226.828 -63.421)"/>
      </g>
    </g>
    <g id="Group_953" data-name="Group 953" transform="translate(260.706 124.749)">
      <path id="Path_540" data-name="Path 540" d="M232.547,66.626c-.186,1.242,2.669,2.421,3.663,2.856a3.027,3.027,0,0,0,.869.186,3.531,3.531,0,0,0,.993-.186c1.614-.683,2.421-.993,2.918-1.862a1.841,1.841,0,0,0,.248-.683l-.31-.31a11.357,11.357,0,0,0-2.731-1.552,3.089,3.089,0,0,0-1.055-.372,3.2,3.2,0,0,0-1.117.062C234.72,65.074,232.671,65.571,232.547,66.626Z" transform="translate(-230.969 -63.167)"/>
      <g id="Group_952" data-name="Group 952">
        <path id="Path_541" data-name="Path 541" d="M232.312,67.892c-.124,1.3,1.055,2.359,2.049,2.98a16.6,16.6,0,0,0,2.793,1.366c1.552.621,3.042-.124,4.408-.807a4.531,4.531,0,0,0,2.483-2.856,1.589,1.589,0,0,0-.372-1.49A8.381,8.381,0,0,0,242,65.843a10.1,10.1,0,0,0-1.428-.683,5.5,5.5,0,0,0-1.924-.683,8.035,8.035,0,0,0-3.6.621c-1.117.435-2.483,1.055-2.731,2.359a1.592,1.592,0,0,0,1.055,1.924,1.623,1.623,0,0,0,1.924-1.055c0-.186.124-.248-.062.062.124-.248-.248.248-.062.062l.062-.062c.124-.124.062-.062-.124.062l.186-.124c.062-.062.124-.062.248-.124a.228.228,0,0,1,.186-.062c-.062,0-.124.062-.186.062a2.225,2.225,0,0,1,.683-.248,7.263,7.263,0,0,1,1.242-.31c.124,0,.186-.062.31-.062.31-.062-.248-.062.124,0h.248c-.186,0,.124,0,.124.062.062,0,.186.062.248.062-.372-.124.062.062.124.062l.745.372,1.117.559a5.457,5.457,0,0,0,.621.372c.186.124-.31-.248-.186-.124a.216.216,0,0,0,.124.062,1.647,1.647,0,0,0,.372.31l-.372-1.49c0,.062-.124.372,0,.124-.062.124-.124.186-.186.31-.124.248.248-.248,0-.062l-.186.186c-.186.186.31-.186,0,0-.062.062-.186.124-.248.186-.186.124-.372.186-.559.31a1.356,1.356,0,0,0-.31.186c-.062,0-.372.186-.248.124.186-.062-.186.062-.248.124a1.048,1.048,0,0,1-.31.124c-.124.062-.248.062-.372.124.31-.062-.124,0-.186,0,.31,0,0,0-.062-.062-.124-.062-.435-.186.062,0-.683-.31-1.366-.621-2.049-.993l-.559-.372c-.31-.186.248.248,0,0l-.186-.186-.062-.062c-.124-.124-.062-.062.062.124-.062,0-.124-.186-.124-.186.062,0,.124.372.062.124,0-.124,0,.435.062.124a1.537,1.537,0,0,0-1.552-1.552C232.933,66.34,232.374,67.023,232.312,67.892Z" transform="translate(-232.286 -64.433)"/>
      </g>
    </g>
    <g id="Group_955" data-name="Group 955" transform="translate(259.252 129.979)">
      <path id="Path_542" data-name="Path 542" d="M237.653,65.945c1.49,4.283,2.731,7.636,3.663,9.87,1.8,4.47,3.166,6.518,2.3,8.877a7.4,7.4,0,0,1-4.159,3.973l-.559-.062c-2.049-.5-5.4-1.676-6.394-4.345-.745-2.049.31-3.849,2.3-8.877.869-2.235,2.173-5.587,3.663-9.87" transform="translate(-230.959 -64.054)"/>
      <g id="Group_954" data-name="Group 954">
        <path id="Path_543" data-name="Path 543" d="M237.256,67.6c1.242,3.663,2.545,7.325,4.035,10.864,1.055,2.483,3.352,5.9,1.117,8.381a7.341,7.341,0,0,1-1.738,1.366,1.858,1.858,0,0,0-.5.248c-.062,0-.062.062-.124.062.5-.062.621-.124.372-.124a5.743,5.743,0,0,1-.621-.186,8.9,8.9,0,0,1-3.849-2.049,2.833,2.833,0,0,1-.869-2.545,19.529,19.529,0,0,1,1.49-4.159q2.514-6.053,4.656-12.291c.621-1.862-2.359-2.731-2.98-.807-1.49,4.283-3.1,8.567-4.842,12.788-1.242,2.98-2.3,6.022,0,8.815A10.744,10.744,0,0,0,238.249,91a6.527,6.527,0,0,0,2.111.5,4.341,4.341,0,0,0,2.545-.993,7.661,7.661,0,0,0,3.538-4.78,9.1,9.1,0,0,0-.683-4.78c-1.862-4.718-3.787-9.374-5.4-14.154-.807-1.924-3.787-1.117-3.1.807Z" transform="translate(-232.052 -65.275)"/>
      </g>
    </g>
    <g id="Group_957" data-name="Group 957" transform="translate(268.01 118.361)">
      <path id="Path_544" data-name="Path 544" d="M233.82,97.3c11.112-.124,22.224-.248,33.336-.435V96.5c.186-7.263.31-14.464.5-21.727v-.435A29.437,29.437,0,0,0,249.4,63.78a136.66,136.66,0,0,1-13.409,29.984" transform="translate(-231.6 -61.445)"/>
      <g id="Group_956" data-name="Group 956">
        <path id="Path_545" data-name="Path 545" d="M235.682,101.62c11.112-.124,22.224-.248,33.336-.435a2.4,2.4,0,0,0,2.359-2.359c0-4.283.186-8.629.248-12.912.062-2.173.124-4.408.124-6.58.062-2.111.31-3.6-1.117-5.339a31.445,31.445,0,0,0-18.748-10.553,2.372,2.372,0,0,0-2.856,1.614,137.5,137.5,0,0,1-13.161,29.425c-1.552,2.607,2.483,4.9,4.035,2.359A144.864,144.864,0,0,0,253.56,66.3c-.931.559-1.924,1.055-2.856,1.614a27.724,27.724,0,0,1,17.2,9.995c-.248-.559-.435-1.117-.683-1.676.31,7.449-.435,15.023-.435,22.534l2.359-2.359c-11.112.124-22.224.248-33.336.435-3.1.124-3.1,4.78-.124,4.78Z" transform="translate(-233.462 -63.404)"/>
      </g>
    </g>
    <path id="Path_546" data-name="Path 546" d="M258.188,74.017H231.37V68.43h26.756v5.587Z" transform="translate(23.651 81.132)" stroke="#000" stroke-miterlimit="10" stroke-width="0.5"/>
    <g id="Group_974" data-name="Group 974" transform="translate(239.337 52.851)">
      <g id="Group_959" data-name="Group 959" transform="translate(6.784 42.347)">
        <g id="Group_958" data-name="Group 958">
          <path id="Path_547" data-name="Path 547" d="M267.33,60.774c-1.428,6.332-4.1,13.285-8.815,17.941-3.29,3.228-7.636,4.408-11.981,2.669-4.221-1.676-7.263-5.525-9.5-9.312A43.877,43.877,0,0,1,233,63.009c-.621-1.924-3.6-1.055-2.98.807,2.421,7.511,6.766,16.14,14.092,19.8a13.793,13.793,0,0,0,14.154-.683c3.973-2.669,6.642-6.953,8.629-11.236a48.742,48.742,0,0,0,3.476-10.119c.372-1.924-2.607-2.731-3.042-.807Z" transform="translate(-229.936 -59.673)"/>
        </g>
      </g>
      <g id="Group_961" data-name="Group 961" transform="translate(5.24 20.685)">
        <g id="Group_960" data-name="Group 960">
          <path id="Path_548" data-name="Path 548" d="M272.473,68.269a8.006,8.006,0,0,0-2.731-4.594c-1.8-1.49-4.035-1.428-6.146-.683a19.081,19.081,0,0,1-4.9,1.3c-2.421.186-4.842.186-7.263.186l1.552,1.552a15.3,15.3,0,0,0-.683-4.1c-.124-.435-.931-2.918-1.428-3.042-.062,0-.993-.559-.5.559,0,0,1.117-.062,1.179-.062,1.366,0,2.669.124,4.035.186,2.049.124,4.656,0,6.58.807,1.862.807,2.98,2.794,3.725,4.532.435-.807.869-1.552,1.366-2.359H235.165c.435.807.869,1.552,1.366,2.359.745-1.738,1.924-3.725,3.725-4.532,1.924-.869,4.532-.683,6.58-.807,1.366-.062,2.669-.186,4.035-.186l1.179.062c.435-1.055-.372-.621-.5-.559-.559.248-1.242,2.545-1.428,3.042a15.3,15.3,0,0,0-.683,4.1l1.552-1.552c-2.483,0-4.966,0-7.449-.186-1.924-.124-3.538-.993-5.339-1.49-4.656-1.3-7.946,2.421-8.5,6.829-.248,1.987,2.856,1.987,3.1,0,.248-1.738,1.49-3.973,3.414-3.973,1.738,0,3.352,1.117,5.028,1.49,3.166.683,6.58.5,9.808.5a1.537,1.537,0,0,0,1.552-1.552,11.887,11.887,0,0,1,1.614-5.4A3.18,3.18,0,0,0,254.6,57.9c-.931-2.173-4.345-1.552-6.208-1.49-2.918.186-6.394,0-9.125,1.117-2.545.993-4.283,3.414-5.339,5.835a1.6,1.6,0,0,0,1.366,2.359h32.094a1.6,1.6,0,0,0,1.366-2.359,11.16,11.16,0,0,0-5.153-5.773c-2.793-1.242-6.394-1.055-9.312-1.242-1.8-.124-5.028-.683-6.084,1.3a2.985,2.985,0,0,0,.248,2.794,13.592,13.592,0,0,1,1.676,5.587,1.577,1.577,0,0,0,1.552,1.552c3.228,0,6.642.186,9.808-.5,1.552-.31,2.918-1.242,4.47-1.49,2.111-.31,3.352,1.676,3.725,3.476.186,1.987,3.166,1.18,2.793-.807Z" transform="translate(-229.688 -56.183)"/>
        </g>
      </g>
      <g id="Group_963" data-name="Group 963" transform="translate(12.888 23.36)">
        <g id="Group_962" data-name="Group 962">
          <path id="Path_549" data-name="Path 549" d="M232.784,61.617A42.317,42.317,0,0,1,255.877,61c.124-.993.248-2.049.435-3.042-5.277.124-10.553.31-15.83.435-1.987.062-1.987,3.166,0,3.1,5.277-.124,10.553-.31,15.83-.435a1.556,1.556,0,0,0,.435-3.042,45.989,45.989,0,0,0-24.769.621c-1.862.621-1.055,3.6.807,2.98Z" transform="translate(-230.92 -56.614)"/>
        </g>
      </g>
      <g id="Group_965" data-name="Group 965">
        <path id="Path_550" data-name="Path 550" d="M273.466,81.448c.062-3.787.062-7.574.124-11.36l.559-.683a13,13,0,0,0,3.911-1.738A4.393,4.393,0,0,0,279.922,64c-.186-1.676-1.614-2.856-2.918-3.911-5.152-4.035-7.636-6.27-10.553-6.829a65.044,65.044,0,0,0-6.518-.124c-2.607,0-4.718,0-6.208.062h1.552c-1.428,0-3.6-.062-6.208-.062a65.044,65.044,0,0,0-6.518.124c-2.918.559-5.4,2.794-10.553,6.829-1.3,1.055-2.731,2.235-2.918,3.911a4.241,4.241,0,0,0,1.862,3.663,12.353,12.353,0,0,0,3.911,1.738l.559.683c.062,3.787.062,7.574.124,11.36" transform="translate(-227.675 -51.346)"/>
        <g id="Group_964" data-name="Group 964">
          <path id="Path_551" data-name="Path 551" d="M276.187,82.952c.062-3.166.124-6.332.124-9.436,0-1.862-.062-1.179,1.428-1.8a10.165,10.165,0,0,0,2.856-1.676,5.533,5.533,0,0,0,1.924-5.277c-.621-2.483-2.856-3.911-4.718-5.4-2.856-2.3-6.022-5.339-9.746-6.084-4.159-.807-8.877-.248-13.1-.124a1.553,1.553,0,0,0,0,3.1h1.552a1.553,1.553,0,0,0,0-3.1c-4.221-.062-8.815-.621-12.974.124-3.787.683-6.953,3.787-9.87,6.084-3.352,2.607-7.077,6.456-3.1,10.429a8.914,8.914,0,0,0,2.731,1.738c1.49.683,1.738,0,1.862,1.49.186,3.29.062,6.642.124,9.932a1.553,1.553,0,0,0,3.1,0c-.062-2.669-.062-5.339-.124-8.07,0-1.552.372-3.414-.745-4.718-1.366-1.614-4.532-1.242-5.4-3.476-.993-2.545,3.166-4.78,4.718-6.022,2.235-1.738,4.78-4.159,7.7-4.47a84.86,84.86,0,0,1,11.919,0v-3.1h-1.552v3.1c3.911-.062,7.884-.31,11.795,0,3.042.248,5.587,2.669,7.884,4.47,1.614,1.242,4.718,2.918,4.718,5.09,0,3.042-3.725,2.545-5.339,4.283-1.117,1.179-.745,2.794-.807,4.345-.062,2.856-.062,5.649-.124,8.5a1.583,1.583,0,0,0,3.166.062Z" transform="translate(-228.843 -52.851)"/>
        </g>
      </g>
      <g id="Group_967" data-name="Group 967" transform="translate(43.308 31.691)">
        <g id="Group_966" data-name="Group 966">
          <path id="Path_552" data-name="Path 552" d="M238.986,71.452a9.945,9.945,0,0,0,4.966-6.208,8.263,8.263,0,0,0-.248-5.339,4.011,4.011,0,0,0-4.47-1.862,4.777,4.777,0,0,0-3.228,2.421,1.588,1.588,0,0,0,.559,2.111,1.531,1.531,0,0,0,2.111-.559,2.693,2.693,0,0,0,.248-.435c-.248.372,0,0,.062-.062l.248-.248c-.248.248.186-.124.248-.124-.248.124.186-.062.248-.062a.228.228,0,0,0,.186-.062h.5c-.372,0,.186.062.248.062-.31-.124.186.124,0,0,.062.062.186.124.248.248-.062-.124-.062-.062,0,.062-.062-.31.062.248.062.31,0,.124.062.186.062.31h0a9.167,9.167,0,0,1,.062,1.3,5.508,5.508,0,0,1-.124.931,3.948,3.948,0,0,1-.372,1.117h0c-.062.062-.062.124-.124.186-.062.124-.124.186-.124.31-.124.186-.186.372-.31.559a7.906,7.906,0,0,1-1.366,1.552s-.372.31-.124.124c-.124.124-.31.186-.435.31a4.63,4.63,0,0,1-.745.435,1.532,1.532,0,0,0-.559,2.111,1.6,1.6,0,0,0,2.173.5Z" transform="translate(-235.82 -57.956)"/>
        </g>
      </g>
      <g id="Group_969" data-name="Group 969" transform="translate(1.402 32.465)">
        <g id="Group_968" data-name="Group 968">
          <path id="Path_553" data-name="Path 553" d="M235.84,69a4.63,4.63,0,0,1-.745-.435c-.124-.124-.31-.186-.435-.31.248.186-.062-.062-.124-.124a6.3,6.3,0,0,1-1.366-1.552,2.52,2.52,0,0,1-.31-.559c-.062-.124-.124-.186-.124-.31-.062-.062-.062-.124-.124-.186h0a6.783,6.783,0,0,1-.31-1.055c-.062-.186-.062-.372-.124-.559s-.062-.248,0-.062v-.372a8.331,8.331,0,0,1,.062-1.242v-.062c0-.124.062-.186.062-.31,0-.062.124-.621.062-.31.124-.124.124-.186,0-.062.062-.062.124-.186.248-.248-.186.124.248-.124,0,0,.062-.062.621-.124.248-.062h.5c.435,0,0-.062,0,0a1.409,1.409,0,0,0,.248.062c.062,0,.5.186.248.062.062.062.559.372.248.124.124.062.186.186.248.248s.31.5.062.062a2.7,2.7,0,0,1,.248.435,1.532,1.532,0,0,0,2.111.559,1.588,1.588,0,0,0,.559-2.111c-1.3-2.483-5.215-3.6-7.2-1.242-1.242,1.428-1.179,3.663-.869,5.463a8.338,8.338,0,0,0,1.366,3.352,10.207,10.207,0,0,0,3.787,3.476,1.588,1.588,0,0,0,2.111-.559A1.719,1.719,0,0,0,235.84,69Z" transform="translate(-229.069 -58.081)"/>
        </g>
      </g>
      <g id="Group_971" data-name="Group 971" transform="translate(8.964 17.461)">
        <g id="Group_970" data-name="Group 970">
          <path id="Path_554" data-name="Path 554" d="M232.165,61.848a42.225,42.225,0,0,1,31.97.062c1.862.745,2.669-2.235.807-2.98a45.35,45.35,0,0,0-33.646-.062c-1.8.683-.993,3.725.869,2.98Z" transform="translate(-230.287 -55.664)" fill="#fff"/>
        </g>
      </g>
      <g id="Group_973" data-name="Group 973" transform="translate(23.061 5.728)">
        <g id="Group_972" data-name="Group 972">
          <path id="Path_555" data-name="Path 555" d="M235.3,54.247c-.745.621-1.552,1.3-2.3,1.924a1.5,1.5,0,0,0-.435,1.117A1.785,1.785,0,0,0,233,58.407c.807.869,1.552,1.738,2.359,2.545a1.555,1.555,0,0,0,2.173,0c.745-.869,1.428-1.676,2.173-2.545a1.5,1.5,0,0,0,.435-1.117,1.593,1.593,0,0,0-.435-1.117c-.745-.683-1.49-1.3-2.173-1.986a1.63,1.63,0,0,0-2.235.062,1.555,1.555,0,0,0,0,2.173c.745.683,1.49,1.3,2.173,1.987V56.234c-.745.869-1.428,1.676-2.173,2.545h2.173c-.807-.869-1.552-1.738-2.359-2.545v2.173c.745-.621,1.552-1.3,2.3-1.924a1.5,1.5,0,0,0,.435-1.117,1.934,1.934,0,0,0-.435-1.117,1.5,1.5,0,0,0-1.117-.435A1.323,1.323,0,0,0,235.3,54.247Z" transform="translate(-232.558 -53.774)" fill="#fff"/>
        </g>
      </g>
    </g>
  </g>
</svg>
