<svg xmlns="http://www.w3.org/2000/svg" width="125.053" height="114.734" viewBox="0 0 125.053 114.734">
  <g id="Group_3514" data-name="Group 3514" transform="translate(-7186.474 232.957)">
    <g id="Group_605" data-name="Group 605" transform="translate(7186.474 -162.094)">
      <g id="Group_133" data-name="Group 133">
        <path id="Path_56" data-name="Path 56" d="M202.049,51.7c6.346-2.578,12.626-5.222,18.972-7.8,3.173-1.322,6.346-2.644,9.453-3.9,3.239-1.322,7.205-3.371,10.709-2.512,1.19.264,3.371,1.124,3.5,2.512.132,1.19-1.124,1.983-2.049,2.71a70.723,70.723,0,0,1-8.065,4.892q-7.338,4.164-14.675,8.527c-5.156,3.041-10.246,6.28-15.4,9.387-2.578,1.52-3.107,1.983-5.751,2.446.661-.132-1.256.132-1.785.132a25.524,25.524,0,0,1-5.024-.066c-2.909-.331-5.751-1.256-8.593-1.785A84.352,84.352,0,0,0,168.6,64.85a37.66,37.66,0,0,0-7.668.727c-2.644.529-5.421,1.719-8.131,1.256-5.222-.859-8.792-7.271-11.37-11.3a21.9,21.9,0,0,1-2.512-5.156c-.132-.529,0-.2,0-.132-.132.4-.4.331.4.066,4.032-1.322,7.6-4.363,11.568-6.015a60.161,60.161,0,0,1,14.344-4.032c1.256-.2-.463,0,.4-.066a16.08,16.08,0,0,1,1.785,0c1.719.066,3.437.264,5.156.463,5.883.661,11.832,1.388,17.716,2.446,2.314.4,6.346,1.322,6.809,4.1s-4.165,4.429-6.478,4.5c-2.578.066-5.288-.793-7.866-1.124a62.063,62.063,0,0,0-10.51-.264c-4.231.264-4.231,6.875,0,6.61a55.742,55.742,0,0,1,10.51.264c3.173.4,6.346,1.388,9.585.925,5.09-.661,11.5-4.561,11.568-10.312.132-5.751-5.619-9.717-10.643-10.907-6.28-1.454-13.022-1.983-19.434-2.776-9.651-1.19-18.509.727-27.433,4.826-6.544,3.041-16.79,6.28-13.287,15.138a41.69,41.69,0,0,0,11.634,16c5.222,4.165,10.577,3.437,16.658,2.049,6.412-1.454,13.617-.793,20.029.4,3.834.727,7.6,1.851,11.568,2.115,11.436.727,19.831-6.809,29.152-12.361,6.941-4.1,14.014-7.866,20.889-12.1,5.09-3.107,11.3-8.4,6.676-14.609-5.487-7.47-14.807-4.627-21.946-1.653-9.254,3.834-18.443,7.6-27.7,11.436-3.635,1.586-1.917,7.932,1.983,6.346Z" transform="translate(-132.392 -30.811)"/>
      </g>
    </g>
    <g id="Group_606" data-name="Group 606" transform="translate(7190.748 -197.398)">
      <path id="Path_57" data-name="Path 57" d="M133.51,47.47h0s46.471.132,50.767.132a26.074,26.074,0,0,0-24.855-21.748c-18.575-.4-25.648,20.228-25.714,20.756Z" transform="translate(-131.001 -23.342)"/>
      <g id="Group_135" data-name="Group 135">
        <path id="Path_58" data-name="Path 58" d="M135.639,52.044c14.212,0,28.491.066,42.7.066h8.065A2.479,2.479,0,0,0,188.786,49c-2.446-13.154-14.014-23.467-27.565-23.533-10.775-.066-19.5,6.875-24.723,15.865a26.816,26.816,0,0,0-3.305,7.6c-.661,3.107,4.1,4.429,4.759,1.322a20.27,20.27,0,0,1,2.975-6.743A28.292,28.292,0,0,1,151.7,32.676a21.581,21.581,0,0,1,19.7.331,24.273,24.273,0,0,1,12.56,17.319c.793-1.058,1.586-2.115,2.38-3.107-14.939,0-29.945-.066-44.884-.066h-5.883C132.466,47.086,132.466,52.044,135.639,52.044Z" transform="translate(-133.13 -25.47)"/>
      </g>
    </g>
    <g id="Group_607" data-name="Group 607" transform="translate(7206.057 -223.405)">
      <path id="Path_59" data-name="Path 59" d="M152.92,38.559a9.734,9.734,0,0,0,2.247-10.378,10.046,10.046,0,0,0-10.907-6.148,10.458,10.458,0,0,0-8.461,9.254,9.112,9.112,0,0,0,1.983,6.214,9.364,9.364,0,0,0,6.61,3.239C145.649,40.939,149.747,41.468,152.92,38.559Z" transform="translate(-133.331 -19.427)"/>
      <g id="Group_137" data-name="Group 137">
        <path id="Path_60" data-name="Path 60" d="M156.714,42.387a12.213,12.213,0,0,0,1.851-14.939,12.788,12.788,0,0,0-13.948-5.487A12.956,12.956,0,0,0,135.429,33.4,11.31,11.31,0,0,0,143.3,44.7c4.495,1.52,9.783.992,13.419-2.314a2.477,2.477,0,0,0-3.5-3.5,7.157,7.157,0,0,1-1.983,1.19,8.807,8.807,0,0,1-1.256.331c-.132,0-.661.066-.2.066-.2,0-.463.066-.661.066-.661,0-1.322,0-1.983-.066-.2,0-.4-.066-.661-.066.661.066.066,0-.264-.066a6.659,6.659,0,0,1-3.966-1.785,7.4,7.4,0,0,1-1.454-2.181,8.806,8.806,0,0,1-.331-1.256c0-.132-.066-.661-.066-.132,0-.2-.066-.4-.066-.595a7.883,7.883,0,0,1,4.165-7.073,7.5,7.5,0,0,1,8.924,1.586,7.2,7.2,0,0,1-.331,9.982C150.9,41.131,154.4,44.635,156.714,42.387Z" transform="translate(-135.407 -21.536)"/>
      </g>
    </g>
    <g id="Group_608" data-name="Group 608" transform="translate(7255.809 -223.405)">
      <g id="Group_140" data-name="Group 140" transform="translate(0 26.007)">
        <path id="Path_61" data-name="Path 61" d="M142.94,47.47h0s46.471.132,50.767.132a26.074,26.074,0,0,0-24.855-21.748c-18.575-.4-25.648,20.228-25.714,20.756Z" transform="translate(-140.431 -23.342)"/>
        <g id="Group_139" data-name="Group 139">
          <path id="Path_62" data-name="Path 62" d="M145.069,52.044c14.212,0,28.491.066,42.7.066h8.065A2.479,2.479,0,0,0,198.216,49C195.771,35.849,184.2,25.536,170.651,25.47c-10.775-.066-19.5,6.875-24.723,15.865a26.816,26.816,0,0,0-3.305,7.6c-.661,3.107,4.1,4.429,4.759,1.322a20.27,20.27,0,0,1,2.975-6.743,28.292,28.292,0,0,1,10.775-10.841,21.581,21.581,0,0,1,19.7.331,24.273,24.273,0,0,1,12.56,17.319c.793-1.058,1.586-2.115,2.38-3.107-14.939,0-29.945-.066-44.884-.066H145C141.9,47.086,141.9,52.044,145.069,52.044Z" transform="translate(-142.561 -25.47)"/>
        </g>
      </g>
      <g id="Group_142" data-name="Group 142" transform="translate(15.046)">
        <path id="Path_63" data-name="Path 63" d="M162.35,38.559A9.734,9.734,0,0,0,164.6,28.181a10.046,10.046,0,0,0-10.907-6.148,10.458,10.458,0,0,0-8.461,9.254,9.112,9.112,0,0,0,1.983,6.214,9.364,9.364,0,0,0,6.61,3.239C155.079,40.939,159.243,41.468,162.35,38.559Z" transform="translate(-142.761 -19.427)"/>
        <g id="Group_141" data-name="Group 141">
          <path id="Path_64" data-name="Path 64" d="M166.144,42.387A12.213,12.213,0,0,0,168,27.448a12.788,12.788,0,0,0-13.948-5.487A12.956,12.956,0,0,0,144.859,33.4a11.31,11.31,0,0,0,7.866,11.3c4.5,1.52,9.849.992,13.419-2.314a2.477,2.477,0,0,0-3.5-3.5,7.156,7.156,0,0,1-1.983,1.19,8.807,8.807,0,0,1-1.256.331c-.132,0-.661.066-.2.066-.2,0-.463.066-.661.066-.661,0-1.322,0-1.983-.066-.2,0-.4-.066-.661-.066.661.066.066,0-.264-.066a6.659,6.659,0,0,1-3.966-1.785,7.4,7.4,0,0,1-1.454-2.181,8.814,8.814,0,0,1-.331-1.256c0-.132-.066-.661-.066-.132,0-.2-.066-.4-.066-.595a7.882,7.882,0,0,1,4.165-7.073,7.5,7.5,0,0,1,8.924,1.586,7.2,7.2,0,0,1-.331,9.982C160.393,41.131,163.9,44.635,166.144,42.387Z" transform="translate(-144.837 -21.536)"/>
        </g>
      </g>
    </g>
    <g id="Group_609" data-name="Group 609" transform="translate(7234.796 -232.957)">
      <g id="Group_145" data-name="Group 145" transform="translate(0 16.455)">
        <path id="Path_65" data-name="Path 65" d="M139.68,36.387h0s29.35.066,32.06.066A16.5,16.5,0,0,0,156.008,22.7c-11.766-.264-16.2,12.824-16.261,13.088C139.812,35.858,139.68,36.387,139.68,36.387Z" transform="translate(-138.87 -21.909)"/>
        <g id="Group_144" data-name="Group 144">
          <path id="Path_66" data-name="Path 66" d="M140.368,37.917c8.99,0,17.98.066,26.97.066h5.09a.817.817,0,0,0,.793-1.058A17.44,17.44,0,0,0,156.5,22.581c-6.544-.066-11.832,4.164-14.939,9.651a15.08,15.08,0,0,0-1.983,4.627c-.2,1.058,1.388,1.454,1.587.463.992-4.627,4.958-9.387,9.056-11.568,9.122-4.759,19.7,2.115,21.418,11.634.264-.331.529-.727.793-1.058-9.453,0-18.906-.066-28.358-.066h-3.7A.827.827,0,0,0,140.368,37.917Z" transform="translate(-139.557 -22.58)"/>
        </g>
      </g>
      <g id="Group_147" data-name="Group 147" transform="translate(9.455)">
        <path id="Path_67" data-name="Path 67" d="M151.9,30.74a6.186,6.186,0,0,0,1.454-6.544,6.358,6.358,0,0,0-6.875-3.9,6.524,6.524,0,0,0-5.354,5.817,5.584,5.584,0,0,0,1.256,3.9,5.888,5.888,0,0,0,4.165,2.049A6.216,6.216,0,0,0,151.9,30.74Z" transform="translate(-140.249 -19.374)"/>
        <g id="Group_146" data-name="Group 146">
          <path id="Path_68" data-name="Path 68" d="M153.232,32.052a7.087,7.087,0,0,0,1.058-8.593,7.219,7.219,0,0,0-8-3.107A7.363,7.363,0,0,0,141,26.9a6.281,6.281,0,0,0,4.429,6.412,8.083,8.083,0,0,0,7.8-1.256c.793-.727-.4-1.851-1.19-1.19a4.986,4.986,0,0,1-3.107,1.256,10.014,10.014,0,0,1-2.049-.132,4.8,4.8,0,0,1-4.231-4.5,5.56,5.56,0,0,1,9.585-3.966,5.27,5.27,0,0,1-.2,7.337C151.315,31.589,152.438,32.779,153.232,32.052Z" transform="translate(-140.988 -20.091)"/>
        </g>
      </g>
    </g>
  </g>
</svg>
