<svg xmlns="http://www.w3.org/2000/svg" width="114.391" height="106.308" viewBox="0 0 114.391 106.308">
  <g id="Group_621" data-name="Group 621" transform="translate(-204.553 -21.187)">
    <g id="Group_169" data-name="Group 169" transform="translate(214.377 102.673)">
      <path id="Path_78" data-name="Path 78" d="M199.1,34.07h0s4.8.066,12.3.263c-.263,5.523-.131,9.534-.2,12.625,0,1.447-.131,3.09-1.118,4.142-1.118,1.249-3.025,1.184-5,1.118-1.973,0-3.879-.066-5.063-1.315-.855-.921-.986-2.038-1.052-4.142C198.7,40.119,199.1,34.07,199.1,34.07Z" transform="translate(-195.548 -30.846)"/>
      <g id="Group_168" data-name="Group 168">
        <path id="Path_79" data-name="Path 79" d="M201.921,40.091c4.077.066,8.153.2,12.3.263l-3.288-3.288c-.132,3.156-.2,6.312-.2,9.534v3.682c0,.2-.132,1.249,0,.526a6.163,6.163,0,0,1-.263,1.052c.2-.526,0-.066,0-.066.131.066.329-.658,0-.066.066-.132.592-.329.066-.132h0c-.329.066-.921.066-.263.066-.395,0-.723.066-1.118.066-.855,0-1.644,0-2.5-.066-.263,0-1.052-.132-.395,0-.329-.066-.658-.2-1.052-.263.526.132.329.132.066,0-.2-.132-.263-.329.066.066l-.329-.329c.066,0,.46.723.131.132-.2-.329.132.658.132.263,0-.066-.066-.2-.066-.263,0,0-.132-.395-.066-.395,0,0,.066.723,0,.132-.066-.921-.131-1.775-.131-2.7-.066-1.775-.066-3.485-.066-5.26,0-2.038.066-4.142.2-6.181a3.341,3.341,0,0,0-3.288-3.288,3.386,3.386,0,0,0-3.288,3.288c-.131,2.1-.2,4.208-.2,6.378,0,2.038,0,4.142.066,6.181.066,1.841.131,3.879,1.118,5.523a6.845,6.845,0,0,0,5.129,3.156,21.593,21.593,0,0,0,6.181.132,6.866,6.866,0,0,0,5.458-3.551,13.153,13.153,0,0,0,.986-5.721c0-3.945,0-7.89.2-11.77a3.386,3.386,0,0,0-3.288-3.288c-4.077-.066-8.153-.132-12.3-.263a3.3,3.3,0,0,0-3.288,3.288A3.366,3.366,0,0,0,201.921,40.091Z" transform="translate(-198.37 -33.58)"/>
      </g>
    </g>
    <g id="Group_171" data-name="Group 171" transform="translate(204.553 62.094)">
      <path id="Path_80" data-name="Path 80" d="M201.333,28.7c-.395-.066-2.236-.329-3.288.723a3.93,3.93,0,0,0-.855,2.762c.2,8.416-.263,16.833.263,25.183a3.143,3.143,0,0,0,.789,2.17,3.974,3.974,0,0,0,2.762.921c33.271.2,66.542-.526,99.879-.723a3.973,3.973,0,0,0,2.762-.921,3.24,3.24,0,0,0,.789-2.17c.526-8.351.066-16.833.263-25.183a3.633,3.633,0,0,0-.855-2.762c-1.052-1.052-2.827-.789-3.288-.723C294.9,28.7,207.184,29.422,201.333,28.7Z" transform="translate(-193.703 -24.676)"/>
      <g id="Group_170" data-name="Group 170">
        <path id="Path_81" data-name="Path 81" d="M204.29,28.143c-6.51-.658-7.364,4.8-7.364,9.929.066,7.43-.789,15.255.263,22.619.921,6.247,6.707,5.852,11.7,5.852,8.153,0,16.373,0,24.526-.066q24.164-.2,48.263-.526c7.5-.066,15.518.658,22.882-.263,6.378-.789,6.181-6.707,6.246-11.836.066-3.682,0-7.364,0-11.047,0-3.419.658-7.5-.2-10.783-.986-3.814-4.208-4.734-7.693-4.6-4.142.2-8.285.263-12.493.395-15.912.329-31.89.46-47.8.526-8.416.066-16.9.066-25.315.066a123.611,123.611,0,0,1-13.019-.263c-4.208-.46-4.142,6.115,0,6.575,8.219.855,16.767.263,24.986.263q21.5,0,43.068-.329c9.929-.132,19.923,0,29.852-.592.329,0,.921-.2,1.249-.066.329.066.592-.2.855.066.592.526.066,3.945.066,4.866,0,3.156.066,6.312.066,9.468V53.13c0,1.118.46,5.523-.263,6.312-.066.066-5.655-.132-6.838-.132-3.551,0-7.1.066-10.652.066-7.1.066-14.2.132-21.3.263q-23.277.3-46.685.395H207.248c-.592,0-3.616.132-3.616.066-.263-.329-.066-3.748-.132-4.6-.131-3.945-.066-7.89,0-11.836,0-1.447-.658-9.008.789-8.811C208.5,35.179,208.5,28.6,204.29,28.143Z" transform="translate(-196.66 -27.408)"/>
      </g>
    </g>
    <circle id="Ellipse_48" data-name="Ellipse 48" cx="7.036" cy="7.036" r="7.036" transform="translate(217.023 77.426)" fill="#fff"/>
    <circle id="Ellipse_49" data-name="Ellipse 49" cx="7.036" cy="7.036" r="7.036" transform="translate(294.86 77.426)" fill="#fff"/>
    <g id="Group_173" data-name="Group 173" transform="translate(213.68 21.225)">
      <g id="Group_172" data-name="Group 172">
        <path id="Path_82" data-name="Path 82" d="M207.9,65.295c2.959-7.43,5.918-14.926,8.877-22.356,2.1-5.26,3.616-11.441,10.389-11.77,5.194-.2,10.521.2,15.715.263,7.956.066,15.912.2,23.8.263,6.378.066,6.378-9.8,0-9.863-8.548-.132-17.1-.2-25.578-.263-5.984-.066-12.888-1.052-18.74.46-8.219,2.1-11.441,9.008-14.268,16.241-3.222,8.153-6.51,16.307-9.731,24.46-.986,2.5,1.052,5.392,3.419,6.049,2.893.723,5.129-.986,6.115-3.485Z" transform="translate(-198.111 -21.193)"/>
      </g>
    </g>
    <g id="Group_175" data-name="Group 175" transform="translate(290.167 102.673)">
      <path id="Path_83" data-name="Path 83" d="M210.119,34.07h0s4.8.066,12.3.263c-.263,5.523-.131,9.534-.2,12.625,0,1.447-.131,3.09-1.118,4.142-1.118,1.249-3.025,1.184-5,1.118-1.973,0-3.879-.066-5.063-1.315-.855-.921-.986-2.038-1.052-4.142C209.79,40.119,210.184,34.07,210.119,34.07Z" transform="translate(-206.568 -30.846)"/>
      <g id="Group_174" data-name="Group 174">
        <path id="Path_84" data-name="Path 84" d="M212.971,40.091c4.077.066,8.153.2,12.3.263l-3.288-3.288c-.132,3.156-.2,6.312-.2,9.534v3.682c0,.2-.132,1.249,0,.526a6.174,6.174,0,0,1-.263,1.052c.2-.526,0-.066,0-.066.131.066.329-.658,0-.066.066-.132.592-.329.066-.132h0c-.329.066-.921.066-.263.066-.395,0-.723.066-1.118.066-.855,0-1.644,0-2.5-.066-.263,0-1.052-.132-.395,0-.329-.066-.658-.2-1.052-.263.526.132.329.132.066,0-.2-.132-.263-.329.066.066l-.329-.329c.066,0,.46.723.131.132-.2-.329.132.658.132.263,0-.066-.066-.2-.066-.263,0,0-.131-.395-.066-.395,0,0,.066.723,0,.132-.066-.921-.131-1.775-.131-2.7C216,46.535,216,44.825,216,43.05c0-2.038.066-4.142.2-6.181a3.341,3.341,0,0,0-3.288-3.288,3.386,3.386,0,0,0-3.288,3.288c-.131,2.1-.2,4.208-.2,6.378,0,2.038,0,4.142.066,6.181.066,1.841.131,3.879,1.118,5.523a6.845,6.845,0,0,0,5.129,3.156,21.593,21.593,0,0,0,6.181.132,6.866,6.866,0,0,0,5.458-3.551,13.153,13.153,0,0,0,.986-5.721c0-3.945,0-7.89.2-11.77a3.386,3.386,0,0,0-3.288-3.288c-4.077-.066-8.153-.132-12.3-.263a3.3,3.3,0,0,0-3.288,3.288A3.415,3.415,0,0,0,212.971,40.091Z" transform="translate(-209.42 -33.58)"/>
      </g>
    </g>
    <g id="Group_177" data-name="Group 177" transform="translate(237.879 21.187)">
      <g id="Group_176" data-name="Group 176">
        <path id="Path_85" data-name="Path 85" d="M274.713,62.7c-3.156-8.022-6.378-16.044-9.6-24.066-2.893-7.364-5.984-14.466-14.4-16.636-5.72-1.447-12.427-.526-18.279-.46-8.679.132-17.359.2-26.038.263-6.312.066-6.378,9.929,0,9.863,7.956-.132,15.912-.2,23.8-.263,5.194-.066,10.521-.46,15.715-.263,6.773.263,8.285,6.51,10.389,11.77,2.959,7.43,5.918,14.926,8.877,22.356.986,2.5,3.288,4.208,6.049,3.419,2.367-.592,4.471-3.485,3.485-5.984Z" transform="translate(-201.636 -21.187)"/>
      </g>
    </g>
  </g>
</svg>
