<svg id="Component_4_4" data-name="Component 4 – 4" xmlns="http://www.w3.org/2000/svg" width="389.473" height="48" viewBox="0 0 389.473 48">
  <g id="Group_18" data-name="Group 18" transform="translate(88.065 4)">
    <path id="Path_118" data-name="Path 118" d="M14.868,0,13.86-2.6h-.137A7.7,7.7,0,0,1,11.014-.3,8.754,8.754,0,0,1,7.383.342,5.872,5.872,0,0,1,3.051-1.23,6.038,6.038,0,0,1,1.47-5.708,5.042,5.042,0,0,1,3.6-10.194a12.329,12.329,0,0,1,6.417-1.6l3.315-.1v-.837q0-2.905-2.974-2.905a13.551,13.551,0,0,0-5.383,1.384L3.247-17.773A15.533,15.533,0,0,1,10.562-19.5a9.111,9.111,0,0,1,5.9,1.675,6.19,6.19,0,0,1,2.051,5.093V0ZM13.33-8.853l-2.017.068a6.458,6.458,0,0,0-3.384.82,2.576,2.576,0,0,0-1.111,2.29q0,2.2,2.529,2.2a4.006,4.006,0,0,0,2.9-1.042A3.662,3.662,0,0,0,13.33-7.28ZM29.087,0H23.875V-26.592h5.212ZM42.468-3.743a3.522,3.522,0,0,0,3.008-1.2,6.584,6.584,0,0,0,.906-3.905v-.632a7.818,7.818,0,0,0-.948-4.4,3.475,3.475,0,0,0-3.051-1.342q-3.674,0-3.674,5.776a8.032,8.032,0,0,0,.914,4.29A3.144,3.144,0,0,0,42.468-3.743ZM51.252.034a7.907,7.907,0,0,1-2.4,6.246Q46.45,8.408,41.7,8.408A20.085,20.085,0,0,1,34.556,7.28V3.11a18.9,18.9,0,0,0,7.451,1.47q4.016,0,4.016-4.341V-.137l.154-2.341h-.154A6.04,6.04,0,0,1,40.605.342a6.157,6.157,0,0,1-5.323-2.649,12.213,12.213,0,0,1-1.888-7.212q0-4.7,1.957-7.323a6.355,6.355,0,0,1,5.392-2.623,6.453,6.453,0,0,1,5.537,2.8h.137l.427-2.444h4.409Zm9.6-9.622a8.019,8.019,0,0,0,.931,4.29,3.331,3.331,0,0,0,3.033,1.453,3.278,3.278,0,0,0,3-1.444,8.134,8.134,0,0,0,.914-4.3,7.892,7.892,0,0,0-.923-4.255,3.337,3.337,0,0,0-3.025-1.418,3.326,3.326,0,0,0-3.008,1.41A7.885,7.885,0,0,0,60.857-9.587Zm13.21,0a10.267,10.267,0,0,1-2.461,7.3A8.923,8.923,0,0,1,64.753.342,9.587,9.587,0,0,1,59.9-.863a8.017,8.017,0,0,1-3.23-3.461,11.629,11.629,0,0,1-1.128-5.264q0-4.683,2.444-7.28a8.975,8.975,0,0,1,6.87-2.6,9.641,9.641,0,0,1,4.854,1.2,7.985,7.985,0,0,1,3.23,3.435A11.521,11.521,0,0,1,74.067-9.587Zm14.971-9.878a8.406,8.406,0,0,1,1.76.154l-.393,4.888a5.971,5.971,0,0,0-1.538-.171,5.527,5.527,0,0,0-3.888,1.282,4.633,4.633,0,0,0-1.393,3.589V0H78.374V-19.106h3.948l.769,3.213h.256a7.182,7.182,0,0,1,2.4-2.589A5.921,5.921,0,0,1,89.038-19.465Zm5.007-4.58q0-2.546,2.837-2.546t2.837,2.546a2.483,2.483,0,0,1-.709,1.888,2.981,2.981,0,0,1-2.128.675Q94.045-21.482,94.045-24.045ZM99.48,0H94.268V-19.106H99.48ZM113-3.811a11.3,11.3,0,0,0,3.281-.6V-.53a11.7,11.7,0,0,1-4.785.872,5.857,5.857,0,0,1-4.554-1.581,6.881,6.881,0,0,1-1.427-4.742v-9.211h-2.5v-2.2l2.871-1.743,1.5-4.033h3.333v4.067h5.349v3.914h-5.349v9.211a2.035,2.035,0,0,0,.624,1.641A2.461,2.461,0,0,0,113-3.811ZM137.249,0h-5.212V-11.16a5.621,5.621,0,0,0-.692-3.1,2.434,2.434,0,0,0-2.179-1.034,3.156,3.156,0,0,0-2.905,1.47,9.64,9.64,0,0,0-.906,4.836V0h-5.212V-19.106h3.982l.7,2.444h.291a5.3,5.3,0,0,1,2.222-2.059,7.214,7.214,0,0,1,3.333-.743q4.29,0,5.811,2.8h.461a5.162,5.162,0,0,1,2.264-2.068,7.552,7.552,0,0,1,3.375-.735,6.662,6.662,0,0,1,4.913,1.666q1.666,1.666,1.666,5.341V0h-5.229V-11.16a5.621,5.621,0,0,0-.692-3.1A2.434,2.434,0,0,0,141.06-15.3a3.251,3.251,0,0,0-2.863,1.367,7.758,7.758,0,0,0-.948,4.341Zm25.173-15.757a3.306,3.306,0,0,0-2.6,1.051,4.864,4.864,0,0,0-1.077,2.982h7.314a4.345,4.345,0,0,0-1.008-2.982A3.414,3.414,0,0,0,162.422-15.757Zm.735,16.1A9.862,9.862,0,0,1,155.945-2.2q-2.6-2.546-2.6-7.212,0-4.8,2.4-7.426a8.55,8.55,0,0,1,6.639-2.623,8.416,8.416,0,0,1,6.306,2.307,8.728,8.728,0,0,1,2.256,6.375v2.529H158.628a5.017,5.017,0,0,0,1.316,3.469A4.63,4.63,0,0,0,163.4-3.538,14.331,14.331,0,0,0,166.66-3.9a16.333,16.333,0,0,0,3.213-1.145v4.033A12.239,12.239,0,0,1,166.951.009,18.426,18.426,0,0,1,163.157.342Z" transform="translate(-0.065 30)"/>
  </g>
  <g id="Group_25" data-name="Group 25" transform="translate(264.065 4)">
    <path id="Path_119" data-name="Path 119" d="M11.724-19.106a10.6,10.6,0,0,1,2.2.205l-.376,2.837a9.077,9.077,0,0,0-2.034-.239,5,5,0,0,0-2.76.82,5.585,5.585,0,0,0-1.991,2.264,7.1,7.1,0,0,0-.718,3.2V0H2.974V-18.765H5.5l.342,3.435h.137a8.12,8.12,0,0,1,2.546-2.82A5.742,5.742,0,0,1,11.724-19.106ZM25.071.342a8.647,8.647,0,0,1-6.622-2.555,9.86,9.86,0,0,1-2.4-7.032,10.838,10.838,0,0,1,2.239-7.186,7.479,7.479,0,0,1,6.05-2.675,7.3,7.3,0,0,1,5.64,2.281,8.763,8.763,0,0,1,2.1,6.178v1.863H19.226A7.191,7.191,0,0,0,20.85-3.931a5.651,5.651,0,0,0,4.358,1.658,14.8,14.8,0,0,0,2.854-.265,16.388,16.388,0,0,0,3.162-1.034v2.7A14.886,14.886,0,0,1,28.3.068,16.669,16.669,0,0,1,25.071.342ZM24.3-16.594a4.463,4.463,0,0,0-3.486,1.418,6.656,6.656,0,0,0-1.521,3.948h9.553a6.09,6.09,0,0,0-1.213-4A4.163,4.163,0,0,0,24.3-16.594ZM43.972-2.17A5.111,5.111,0,0,0,48.1-3.7q1.29-1.53,1.29-4.913v-.735q0-3.76-1.3-5.469A4.923,4.923,0,0,0,43.9-16.526a4.174,4.174,0,0,0-3.649,1.871,9.352,9.352,0,0,0-1.29,5.341A9.369,9.369,0,0,0,40.221-4,4.251,4.251,0,0,0,43.972-2.17Zm5.383,2,.1-2.307h-.137A6.52,6.52,0,0,1,43.511.342,6.887,6.887,0,0,1,37.828-2.2q-2.042-2.538-2.042-7.152a11.253,11.253,0,0,1,2.059-7.144,6.78,6.78,0,0,1,5.631-2.615,6.842,6.842,0,0,1,5.879,2.837h.188l.41-2.5H52.4V.308q0,4.033-2.042,6.067T44.006,8.408a16.469,16.469,0,0,1-6.75-1.2V4.375a14.522,14.522,0,0,0,6.921,1.47,5.1,5.1,0,0,0,3.785-1.4A5.262,5.262,0,0,0,49.355.564ZM61.438,0H58.362V-18.765h3.076ZM58.123-23.84a1.892,1.892,0,0,1,.521-1.487,1.876,1.876,0,0,1,1.29-.461,1.871,1.871,0,0,1,1.256.461,1.858,1.858,0,0,1,.538,1.487,1.89,1.89,0,0,1-.538,1.487,1.832,1.832,0,0,1-1.256.479,1.836,1.836,0,0,1-1.29-.479A1.925,1.925,0,0,1,58.123-23.84ZM79.6-5.178A4.762,4.762,0,0,1,77.639-1.1,9.181,9.181,0,0,1,72.119.342a12.477,12.477,0,0,1-5.9-1.179v-2.8a13.621,13.621,0,0,0,5.964,1.5,5.948,5.948,0,0,0,3.384-.752A2.352,2.352,0,0,0,76.631-4.9a2.289,2.289,0,0,0-1.017-1.88A15.893,15.893,0,0,0,72-8.545,20.573,20.573,0,0,1,68.274-10.3a4.866,4.866,0,0,1-1.581-1.632,4.473,4.473,0,0,1-.5-2.2,4.228,4.228,0,0,1,1.88-3.64,8.786,8.786,0,0,1,5.161-1.333,14.3,14.3,0,0,1,5.981,1.265L78.169-15.4a13.493,13.493,0,0,0-5.144-1.2,5.633,5.633,0,0,0-2.905.607,1.869,1.869,0,0,0-.991,1.666,2.081,2.081,0,0,0,.854,1.7,18.312,18.312,0,0,0,3.982,1.871,17.437,17.437,0,0,1,3.461,1.624,5.1,5.1,0,0,1,1.649,1.692A4.525,4.525,0,0,1,79.6-5.178ZM90.422-2.17a9.677,9.677,0,0,0,1.4-.12,6.327,6.327,0,0,0,1.213-.273V-.205a6.884,6.884,0,0,1-1.324.367,9.258,9.258,0,0,1-1.82.179q-5.5,0-5.5-5.793v-10.92H81.741v-1.47l2.683-1.23,1.23-4h1.829v4.307H92.9v2.393H87.483V-5.537a3.627,3.627,0,0,0,.778,2.5A2.748,2.748,0,0,0,90.422-2.17ZM104.761.342a8.647,8.647,0,0,1-6.622-2.555,9.86,9.86,0,0,1-2.4-7.032,10.838,10.838,0,0,1,2.239-7.186,7.479,7.479,0,0,1,6.05-2.675,7.3,7.3,0,0,1,5.64,2.281,8.763,8.763,0,0,1,2.1,6.178v1.863H98.916a7.191,7.191,0,0,0,1.624,4.854A5.651,5.651,0,0,0,104.9-2.273a14.8,14.8,0,0,0,2.854-.265,16.388,16.388,0,0,0,3.162-1.034v2.7a14.886,14.886,0,0,1-2.922.94A16.669,16.669,0,0,1,104.761.342Zm-.769-16.936a4.463,4.463,0,0,0-3.486,1.418,6.656,6.656,0,0,0-1.521,3.948h9.553a6.09,6.09,0,0,0-1.213-4A4.163,4.163,0,0,0,103.992-16.594Zm21.277-2.512a10.6,10.6,0,0,1,2.2.205l-.376,2.837a9.077,9.077,0,0,0-2.034-.239,5,5,0,0,0-2.76.82,5.586,5.586,0,0,0-1.991,2.264,7.1,7.1,0,0,0-.718,3.2V0h-3.076V-18.765h2.529l.342,3.435h.137a8.12,8.12,0,0,1,2.546-2.82A5.742,5.742,0,0,1,125.269-19.106Z" transform="translate(-2.065 30)"/>
  </g>
  <path id="Polygon_11" data-name="Polygon 11" d="M37.942,1.235a4,4,0,0,1,4.116,0L74.283,20.57a4,4,0,0,1,0,6.86L42.058,46.765a4,4,0,0,1-4.116,0L5.717,27.43a4,4,0,0,1,0-6.86Z" fill="#4d80e2"/>
  <rect id="Rectangle_53" data-name="Rectangle 53" width="19" height="4" rx="1" transform="translate(28 30)" fill="#fff"/>
  <rect id="Rectangle_62" data-name="Rectangle 62" width="14" height="4" rx="1" transform="translate(28 22)" fill="#fff"/>
  <rect id="Rectangle_61" data-name="Rectangle 61" width="24" height="4" rx="1" transform="translate(28 14)" fill="#fff"/>
</svg>
